<svg xmlns="http://www.w3.org/2000/svg" viewBox="0 0 448 448"><defs><style>.ba5940e3-cf73-4b5f-95d5-b9fbe87ac60e{fill:#f7df1c;}</style></defs><g id="b97062eb-612c-4d4f-9361-303c924ce7fc" data-name="レイヤー 2"><g id="f55a7028-e48e-4218-abbe-73e391cb8fa0" data-name="レイヤー 1"><path class="ba5940e3-cf73-4b5f-95d5-b9fbe87ac60e" d="M400,0H48A48,48,0,0,0,0,48V400a48,48,0,0,0,48,48H400a48,48,0,0,0,48-48V48A48,48,0,0,0,400,0ZM135.65,261.13c0,37.48-22,54.6-54.08,54.6-29,0-45.75-15-54.34-33.11l29.49-17.8C62.39,274.88,67.55,283.4,80,283.4c11.87,0,19.43-4.65,19.43-22.79v-123h36.2V261.13Zm83,54.6c-33.62,0-55.37-16-65.95-37l29.5-17c7.73,12.64,17.88,22,35.68,22,15,0,24.59-7.48,24.59-17.89,0-12.38-9.8-16.76-26.4-24.07l-9-3.87c-26.14-11.09-43.43-25.11-43.43-54.6,0-27.17,20.73-47.81,53-47.81,23,0,39.55,8,51.42,29l-28.2,18.05c-6.19-11.09-12.9-15.47-23.31-15.47-10.57,0-17.28,6.7-17.28,15.47,0,10.84,6.71,15.22,22.27,22l9,3.87c30.78,13.15,48.07,26.65,48.07,56.92,0,32.5-25.63,50.39-59.94,50.39Zm138.18.77c-33.62,0-55.37-16-65.95-37l29.49-17c7.74,12.64,17.89,22,35.69,22,15,0,24.59-7.48,24.59-17.88,0-12.38-9.8-16.77-26.4-24.08l-9-3.87c-26.13-11.09-43.42-25.1-43.42-54.6,0-27.17,20.72-47.81,53-47.81,23,0,39.55,8,51.42,29L378,183.31c-6.2-11.09-12.9-15.48-23.31-15.48-10.57,0-17.28,6.71-17.28,15.48,0,10.83,6.71,15.22,22.27,22l9,3.87c30.78,13.16,48.06,26.66,48.06,56.92,0,32.5-25.62,50.39-59.93,50.39Z"/></g></g></svg>